# xmcd CD database file
#
# Track frame offsets:
#	150
#	44250
#	74303
#	160703
#	197153
#	231653
#	269978
#	316168
#
# Disc length: 4446 seconds
#
# Revision: 0
# Processed by: cddbd v1.5PL3 Copyright (c) Steve Scherf et al.
# Submitted via: CDex 1.51
#
DISCID=76115c08
DTITLE=Dexter Gordon - Birthday Celebration CD 1 (1950-1969)
DYEAR=2003
DGENRE=Jazz
TTITLE0=Move
TTITLE1=Jodi
TTITLE2=Setting The Pace
TTITLE3=Those Where The Days
TTITLE4=Boston Bernie
TTITLE5=Meditation
TTITLE6=Misty
TTITLE7=Dexter Digs In
EXTD=YEAR: 2003
EXTT0=
EXTT1=
EXTT2=
EXTT3=
EXTT4=
EXTT5=
EXTT6=
EXTT7=
PLAYORDER=
